<svg width="18" height="19" viewBox="0 0 18 19" fill="none" xmlns="http://www.w3.org/2000/svg">
<path d="M6.75 14.9229V10.3454C6.75 9.50267 6.07843 8.81953 5.25 8.81953H3.75C2.92157 8.81953 2.25 9.50267 2.25 10.3454V14.9229C2.25 15.7656 2.92157 16.4487 3.75 16.4487H5.25C6.07843 16.4487 6.75 15.7656 6.75 14.9229ZM6.75 14.9229V7.2937C6.75 6.451 7.42157 5.76786 8.25 5.76786H9.75C10.5784 5.76786 11.25 6.451 11.25 7.2937V14.9229M6.75 14.9229C6.75 15.7656 7.42157 16.4487 8.25 16.4487H9.75C10.5784 16.4487 11.25 15.7656 11.25 14.9229M11.25 14.9229V4.24202C11.25 3.39933 11.9216 2.71619 12.75 2.71619H14.25C15.0784 2.71619 15.75 3.39933 15.75 4.24202V14.9229C15.75 15.7656 15.0784 16.4487 14.25 16.4487H12.75C11.9216 16.4487 11.25 15.7656 11.25 14.9229Z" stroke="#3F3F46" stroke-width="1.2" stroke-linecap="round" stroke-linejoin="round"/>
</svg>
