<svg xmlns="http://www.w3.org/2000/svg" viewBox="0 0 4680 3120"><defs><style>.cls-1,.cls-13{fill:#fff;}.cls-1{opacity:0;}.cls-2{fill:#ecf1fe;}.cls-3{fill:#7f4abc;}.cls-4{fill:#683da5;}.cls-5{fill:#ffe269;}.cls-6{fill:#ff8e5e;}.cls-7{fill:#f2cd57;}.cls-8{fill:#ef7a52;}.cls-9{fill:#9167ce;}.cls-10{fill:#1f296f;}.cls-11{fill:#ad64f3;}.cls-12{fill:#693da8;}.cls-14{fill:#ccd5ea;}.cls-15{fill:#d7e1f7;}.cls-16{fill:#6cd8ba;}.cls-17{fill:#f28c61;}.cls-18{fill:#f5715d;}.cls-19{fill:#ed7d56;}.cls-20{fill:#ff9976;}.cls-21{fill:#58b79a;}.cls-22{fill:#b1f2da;}.cls-23{fill:#a382f1;}.cls-24{fill:#69ccae;}.cls-25{fill:#3c7219;}.cls-26{fill:#d85345;}.cls-27{fill:#172151;}.cls-28{fill:#f5ae99;}.cls-29{fill:#dd8c7a;}.cls-30{fill:#f28d83;}.cls-31{fill:#f48a71;}.cls-32{fill:#80433f;}.cls-33{fill:#3b9376;}.cls-34{fill:#3f3f3f;}.cls-35{fill:#cc766a;}.cls-36{fill:#524d5d;}</style></defs><title>10</title><g id="_10" data-name="10"><rect id="_10-2" data-name="10" class="cls-1" width="4680" height="3120"/><path class="cls-2" d="M4031.18,2169.49c0,182.35-57.71,351.21-155.88,489.31H565.23c-79.71-128.66-125.73-280.41-125.73-442.89,0-465.09,377-842.13,842.13-842.13q12.24,0,24.43.36-.21-9.53-.22-19.12c0-467,378.58-845.58,845.59-845.58,463.67,0,840.16,373.19,845.52,835.59a849,849,0,0,1,188.64-21.13C3652.59,1323.9,4031.18,1702.49,4031.18,2169.49Z"/><path class="cls-3" d="M1195,489.08C1048.22,689.31,802.46,739.2,686.21,751.63a70.87,70.87,0,0,0-63.4,73c26.77,709.55,462.8,1023.62,593,1101.89a70.76,70.76,0,0,0,72.9,0c130.23-78.27,566.26-392.34,593-1101.89a70.87,70.87,0,0,0-63.4-73c-116.25-12.43-362-62.32-508.8-262.55A71,71,0,0,0,1195,489.08Z"/><path class="cls-4" d="M1883.29,824.67c-26.76,709.55-462.8,1023.63-593,1101.9a70.73,70.73,0,0,1-36.45,10.1V460a70.58,70.58,0,0,1,57.28,29.09c146.79,200.22,392.55,250.12,508.81,262.54A70.87,70.87,0,0,1,1883.29,824.67Z"/><path class="cls-5" d="M1202.92,587c-126.53,172.59-338.38,215.6-438.58,226.31a61.09,61.09,0,0,0-54.65,63c23.07,611.62,398.92,882.35,511.18,949.81a61,61,0,0,0,62.84,0c112.26-67.46,488.11-338.19,511.18-949.81a61.09,61.09,0,0,0-54.65-63c-100.2-10.71-312-53.72-438.58-226.31A61.15,61.15,0,0,0,1202.92,587Z"/><path class="cls-6" d="M1463.47,1052.51h-9.32c-2-109.77-91.61-198.14-201.86-198.14s-199.85,88.37-201.86,198.14h-9.32a42.4,42.4,0,0,0-42.4,42.4v335.75a42.4,42.4,0,0,0,42.4,42.4h422.36a42.4,42.4,0,0,0,42.4-42.4V1094.91A42.4,42.4,0,0,0,1463.47,1052.51ZM1252.29,908.25a148,148,0,0,1,148,144.26h-296A148,148,0,0,1,1252.29,908.25Z"/><path class="cls-7" d="M1796.41,876.24c-23.07,611.61-398.92,882.34-511.19,949.8a60.88,60.88,0,0,1-31.41,8.71V561.91A60.84,60.84,0,0,1,1303.18,587c126.53,172.59,338.38,215.59,438.58,226.31A61.09,61.09,0,0,1,1796.41,876.24Z"/><path class="cls-8" d="M1507.39,1094.91v335.75a42.39,42.39,0,0,1-42.39,42.4H1253.81V1052.51h148a148,148,0,0,0-148-144.26V854.37c110.26,0,199.85,88.37,201.87,198.14H1465A42.39,42.39,0,0,1,1507.39,1094.91Z"/><path class="cls-9" d="M2454.59,1958v692h723.66V1958Zm604.21,404.25a80.44,80.44,0,0,1-80.44,80.45H2767.1a80.44,80.44,0,0,1-80.44-80.45v-71.71a80.43,80.43,0,0,1,80.44-80.43h211.26a80.43,80.43,0,0,1,80.44,80.43Z"/><path class="cls-10" d="M3234.56,1958h-56.3v524.69a118.53,118.53,0,0,1-118.53,118.53H2691.08v50.88h508.48v-2.09h35Z"/><path class="cls-10" d="M3058.8,2290.58v29.54a80.43,80.43,0,0,0-80.44-80.43H2767.1a80.43,80.43,0,0,0-80.44,80.43v-29.54a80.43,80.43,0,0,1,80.44-80.43h211.26A80.43,80.43,0,0,1,3058.8,2290.58Z"/><rect class="cls-10" x="1632.32" y="776.63" width="2171.54" height="1392.86" rx="40.61"/><rect class="cls-11" x="1573.04" y="776.63" width="2171.54" height="1392.86" rx="40.61"/><path class="cls-4" d="M3694.92,852.87V2093.25a26.59,26.59,0,0,1-26.58,26.59h-2019a26.59,26.59,0,0,1-26.59-26.59V852.87a26.59,26.59,0,0,1,26.59-26.59H3668.34A26.59,26.59,0,0,1,3694.92,852.87Z"/><path class="cls-10" d="M3694.92,852.87v7h-2012a26.59,26.59,0,0,0-26.59,26.59V2119.84h-7a26.59,26.59,0,0,1-26.59-26.59V852.87a26.59,26.59,0,0,1,26.59-26.59H3668.34A26.59,26.59,0,0,1,3694.92,852.87Z"/><polygon class="cls-9" points="2549.44 826.28 1622.7 1725.54 1622.7 1601.39 2421.49 826.28 2549.44 826.28"/><path class="cls-9" d="M3694.92,852.87v25.8L2415.82,2119.84h-128L3621,826.28h47.38A26.59,26.59,0,0,1,3694.92,852.87Z"/><polygon class="cls-9" points="2632.53 826.28 1622.7 1806.17 1622.7 1766.3 2591.44 826.28 2632.53 826.28"/><polygon class="cls-9" points="2872.73 826.28 1622.7 2039.24 1622.7 1999.38 2831.64 826.28 2872.73 826.28"/><polygon class="cls-9" points="3694.92 1704.87 3694.92 1744.75 3308.37 2119.84 3267.28 2119.84 3694.92 1704.87"/><path class="cls-12" d="M2944.45,1115.2c-26.26,108.75,32.35,342.18,42,514.75,8.66,154.59,19,327.78,15.27,489.89H1824.85c-1.34-33.17-3.6-62.38-5.84-85.51q-6.87-71-11.6-142.09c-8.64-127.85-22.46-261.52-25.81-386.26-5-187.48-8.94-337.87,25.37-419.17,42.58-100.95,125.92-109,125.92-109l1119-40.35S2979.41,970.34,2944.45,1115.2Z"/><path class="cls-13" d="M3057,936.13H1867s-83.35,8-125.93,109c-34.3,81.31-30.41,231.7-25.37,419.17,3.35,124.74,17.17,258.42,25.8,386.26q4.8,71.13,11.6,142.09c16.28,168.17,33.81,657.4-313.13,657.4h1323.5c232.59-131,198.71-659.37,176.13-1061.78-9.68-172.57-56.53-375.72-30.28-484.47C2944.29,958.94,3057,936.13,3057,936.13Z"/><path class="cls-14" d="M2763.47,2650.05s-206.94,36.93-206.94-199.78H1323.63s-23.77,199.78,116.34,199.78C1440,2650.05,2763.47,2640.73,2763.47,2650.05Z"/><rect class="cls-15" x="1772.92" y="1070.24" width="965.51" height="35.26" rx="17.63"/><rect class="cls-15" x="1749.29" y="1250.09" width="965.51" height="35.26" rx="17.63"/><rect class="cls-15" x="1752.58" y="1339.64" width="965.51" height="35.26" rx="17.63"/><rect class="cls-15" x="1749.29" y="1159.53" width="645.56" height="35.26" rx="17.63"/><path class="cls-15" d="M1764.87,1480.36c1.62,72.92,7.05,231.29,24.61,350.1a39,39,0,0,0,38.56,33.27h891.14a39,39,0,0,0,38.88-41.53c-4.45-67.41-15.53-207.41-37.87-348.85a39,39,0,0,0-38.49-32.82H1803.83A39,39,0,0,0,1764.87,1480.36Z"/><path class="cls-10" d="M2394.85,2263.33h393.58c5.32,0,10.64.08,16,0h.7a6,6,0,1,0,0-12H2411.5c-5.32,0-10.64-.09-16,0h-.69a6,6,0,0,0,0,12Z"/><path class="cls-10" d="M2454.72,2211.75a318,318,0,0,1,11.47-32.46c.13-.31.26-.62.38-.93.39-.93-.56,1.31.08-.18.27-.62.53-1.24.8-1.85.59-1.38,1.2-2.76,1.82-4.14,1.17-2.6,2.38-5.18,3.61-7.75q3.72-7.7,7.84-15.19a320.13,320.13,0,0,1,18.17-29.24q2.45-3.51,5-6.94c.84-1.15,1.7-2.29,2.56-3.42l1.22-1.6c-.13.18-.71.92,0,0l.78-1q5.35-6.83,11.07-13.35a80.83,80.83,0,0,1,5.67-6q.71-.66,1.44-1.29l.75-.61c-.94.78-.3.23-.07.07a32.72,32.72,0,0,1,3.69-2.21c.71-.35.38.15-.22.08a3.92,3.92,0,0,0,.8-.29c.54-.17,1.09-.33,1.64-.45.28-.07.56-.11.84-.17,1.12-.23-.22.09-.34,0,.45.2,1.61-.09,2.12-.07a6.48,6.48,0,0,1,.84.05c0-.05-1.29-.24-.35,0a14.35,14.35,0,0,1,1.6.39,3.19,3.19,0,0,1,.78.28l-.68-.28.54.28c.24.13.48.27.71.42,1.06.69-.1.09-.06-.07,0,.18,1.14,1,1.24,1.28-.39-1-.34-.5-.13-.13s.4.63.58,1,.26.55.41.81c.43.74-.35-1-.06-.18s.48,1.3.68,2c.84,2.79,1.37,5.69,2,8.54q2,9.7,3.64,19.48.8,4.82,1.49,9.65c.13.85.25,1.7.36,2.56.06.37.11.75.16,1.13,0-.25-.15-1.1,0,.11.23,1.71.44,3.42.65,5.13.78,6.44,1.16,13,2.41,19.36a33.77,33.77,0,0,0,7.74,16.42,21.77,21.77,0,0,0,15.71,7.42c12.79.06,20.79-11.67,27.39-20.95q11.11-15.62,21.26-31.89,2.53-4.07,5-8.17l-11.22-3c-.13,5.18.24,10.64,2.77,15.28a15,15,0,0,0,16.1,7.39c5.58-1,10.54-5,14.41-8.91s7.51-8.25,11.35-12.28q11.88-12.45,24.75-23.91,6.38-5.68,13-11.1,3.32-2.71,6.66-5.35l1.63-1.28.82-.63c-.18.14-.9.69,0,0l3.5-2.66q15.41-11.61,31.83-21.76c2.68-1.65,3.95-5.45,2.16-8.23a6.11,6.11,0,0,0-8.24-2.16,433.52,433.52,0,0,0-53.43,39q-12.39,10.59-23.95,22.12-5.76,5.76-11.31,11.75c-1.82,2-3.61,3.94-5.4,5.93-.82.92-1.66,1.81-2.54,2.67a17,17,0,0,1-2.84,2.53c.16-.1,1-.73.09-.09-.31.23-.63.45-1,.67-.57.38-1.16.74-1.76,1.06l-.79.4c-.85.44.09-.17.24-.09-.2-.11-1.52.49-1.81.55l-.2,0c-.54.1-.54.1,0,0s.53-.08,0,0h-.41a5.56,5.56,0,0,0-.8,0c.49-.13,1.22.24.21,0-.21-.05-1.09-.24-.26,0s-.24-.15-.44-.27a4.94,4.94,0,0,0-.66-.43c.3.09.86.8.33.21-.16-.18-.35-.37-.52-.54-.82-.81.4.74.14.18-.05-.12-.82-1.49-.83-1.49.22,0,.43,1.24.17.36-.1-.31-.22-.62-.31-.94-.16-.57-.3-1.16-.41-1.75a6.84,6.84,0,0,0-.14-.81c.11.3.13,1.2.06.37s-.12-1.38-.15-2.07c-.05-1.23,0-2.45,0-3.68a6.09,6.09,0,0,0-4.42-5.81,6.21,6.21,0,0,0-6.8,2.77q-10,16.66-21.09,32.68-2.71,3.95-5.5,7.84c-.87,1.22-1.75,2.45-2.63,3.66-.35.48-.7,1-1.06,1.43-.18.24-.36.49-.54.72.91-1.15,0-.05-.19.21a41.68,41.68,0,0,1-5.3,5.57,5.5,5.5,0,0,1-.69.57c1.09-.59.47-.34.17-.15-.54.36-1.06.73-1.62,1.07s-1,.52-1.51.8c-.72.4,1.06-.37.28-.11-.4.13-.79.28-1.19.4-.55.16-1.09.26-1.64.38-.82.18,1.17,0,.33-.06-.29,0-.58,0-.86,0l-.87,0c-1.15-.06-.15.28.13.05-.2.16-1.59-.37-1.83-.44l-.79-.28c-.78-.25,1,.52.28.11-.55-.31-1.12-.58-1.65-.92l-.71-.47c-.5-.34-.54-.07.2.16-.46-.14-1.09-1-1.43-1.3s-.89-.95-1.31-1.44-.64-.38.14.2a3.54,3.54,0,0,1-.5-.71,25,25,0,0,1-1.92-3.47c.53,1.14-.24-.66-.35-1-.23-.65-.43-1.3-.62-2-.42-1.49-.75-3-1-4.55-.12-.68-.23-1.37-.33-2.06-.17-1.17,0-.18,0,.05l-.12-1c-.19-1.56-.34-3.11-.5-4.67q-.51-4.86-1.12-9.7c-.87-6.9-1.86-13.78-3-20.64q-1.64-9.77-3.69-19.46c-1.26-6-2.48-12.32-6.91-16.84-4.64-4.73-11.44-5.85-17.72-4.66-6,1.12-11.17,5.05-15.36,9.28-4,4-7.55,8.38-11.11,12.73q-5.74,7-11.12,14.32a321.42,321.42,0,0,0-19,29,327.6,327.6,0,0,0-28.41,63.77q-1.3,4.07-2.51,8.17a6.07,6.07,0,0,0,4.2,7.4,6.14,6.14,0,0,0,7.41-4.2Z"/><path class="cls-16" d="M2340.57,2241.1c0,73.76-55.66,139.84-129.42,139.84s-117.83-65.12-117.83-138.88,46.43-136.81,120.18-136.81S2340.57,2167.35,2340.57,2241.1Z"/><path class="cls-10" d="M2211.15,2364c-30.53,0-56.42-12.84-74.88-37.14-16.8-22.1-26.05-52.23-26.05-84.84,0-32.26,9.69-62,27.28-83.87,19-23.57,45.27-36,76-36a105.24,105.24,0,0,1,79.35,35.43c19.87,22.17,30.81,51.83,30.81,83.51,0,31.31-11.65,62.47-32,85.49C2270.39,2350.74,2241.78,2364,2211.15,2364Zm2.35-236c-63.94,0-97.4,57.36-97.4,114,0,55.91,29.75,116.09,95.05,116.09,58.8,0,106.63-52.5,106.63-117.05C2317.78,2177.7,2272,2128,2213.5,2128Z"/><path class="cls-10" d="M2257.17,2248.6q-7.44-6.6-21-10.49v-46.37a54.71,54.71,0,0,1,13,6.46q4,2.49,7.07,1.53a7.71,7.71,0,0,0,4.6-3.73,9,9,0,0,0,1-6,8.59,8.59,0,0,0-3.82-5.55,56.5,56.5,0,0,0-18.66-9.37c-1-.3-2.08-.58-3.14-.84v-13.5a5.92,5.92,0,0,0-5.92-5.92h0a5.92,5.92,0,0,0-5.92,5.92v11.59c-2.39-.2-4.82-.31-7.3-.31a76.29,76.29,0,0,0-12.46,1v-12.26a5.92,5.92,0,0,0-11.84,0v15.48c-.71.28-1.41.56-2.1.87a41.86,41.86,0,0,0-17.89,14.25,36.18,36.18,0,0,0-6.4,21.23q0,14.92,8.89,23.72,6.38,6.3,17.5,10v44.12a64.57,64.57,0,0,1-16.64-7.68q-3.82-2.49-6.79-1.34a7.94,7.94,0,0,0-4.4,4.11,9.76,9.76,0,0,0,3.73,12.53,65.5,65.5,0,0,0,21.14,9.18c1,.25,2,.48,3,.7v17.56a5.92,5.92,0,0,0,11.84,0v-15.71c3.46.34,7,.51,10.55.51a90.55,90.55,0,0,0,9.21-.46v15.66a5.92,5.92,0,0,0,5.92,5.91h0a5.92,5.92,0,0,0,5.92-5.91v-17.86a54.31,54.31,0,0,0,6.3-2.21q11.47-4.89,17.79-13.68a34.5,34.5,0,0,0,6.31-20.66Q2266.54,2256.92,2257.17,2248.6Zm-40.36-59.78a70.11,70.11,0,0,1,7.49.4v46.14l-15.91-3.3c-1.35-.28-2.63-.58-3.85-.91v-40.86A47.66,47.66,0,0,1,2216.81,2188.82Zm-25.64,36Q2186,2220,2186,2212a19.92,19.92,0,0,1,6.69-15.47V2226A19.69,19.69,0,0,1,2191.17,2224.79Zm23.92,68.67a89.64,89.64,0,0,1-10.55-.61v-43.49l18.2,3.74,1.56.33v39.48A72.42,72.42,0,0,1,2215.09,2293.46Zm24-5.83a21.43,21.43,0,0,1-3,1.85v-32.3a24.42,24.42,0,0,1,5.15,3.09,14.82,14.82,0,0,1,5.55,12.15A18.17,18.17,0,0,1,2239.09,2287.63Z"/><path class="cls-5" d="M2180.5,2141.52c0,99.61-75.17,188.86-174.78,188.86s-159.15-88-159.15-187.57S1909.28,1958,2008.89,1958,2180.5,2041.9,2180.5,2141.52Z"/><path class="cls-17" d="M2005.72,2306.29c-40.83,0-75.46-17.17-100.14-49.66-22.52-29.63-34.92-70.06-34.92-113.82,0-43.29,13-83.24,36.56-112.49,25.4-31.53,60.56-48.19,101.67-48.19a140.92,140.92,0,0,1,106.23,47.44c26.62,29.71,41.29,69.47,41.29,112,0,42-15.63,83.75-42.87,114.62C2085,2288.48,2046.72,2306.29,2005.72,2306.29Zm3.17-318.73c-87.18,0-132.8,78.1-132.8,155.25,0,76.12,40.56,158.05,129.63,158.05,80.09,0,145.26-71.48,145.26-159.34C2151,2055.19,2088.57,1987.56,2008.89,1987.56Z"/><path class="cls-6" d="M2079.15,2145.65q-9.74-10.8-25.61-17.14A48.13,48.13,0,0,0,2071,2114q7.8-10.74,7.46-26c-.34-15-6.32-26.13-17.92-33.55q-10.94-7-26.61-9.8l0-23.8-21.44-.53-.28,22.39-7.42-.16.38-22.41-21.57-.52-.63,22.44-22.63-.5-24.24-.53-1.45,27.27,24.59.48L1954,2198.4l-26.28-.16-1.71,32.08,26.7.09,24.92.07-.85,30.33h24.38l.5-30.25,8.16,0-.38,30.23h24.22l0-31a103.85,103.85,0,0,0,12.84-2.36,69.86,69.86,0,0,0,22.83-10.13,47.68,47.68,0,0,0,15.63-17.68q5.53-10.71,5.12-25.95A42.25,42.25,0,0,0,2079.15,2145.65Zm-33.57-52.09A25.15,25.15,0,0,1,2039,2111q-6.72,7.58-21.08,7.38l-27.71-.4,1.14-48.55,23.52.46q14,.27,22.33,6C2042.73,2079.66,2045.54,2085.55,2045.58,2093.56Zm-.35,100.09q-10.85,6.34-27,6.26l-30-.19,1.22-52.38,27,.31a73.93,73.93,0,0,1,18.76,2.56,34.31,34.31,0,0,1,14.72,7.89c3.86,3.64,5.83,8.81,5.89,15.55C2056,2182.76,2052.42,2189.45,2045.23,2193.65Z"/><polygon class="cls-16" points="3184.65 1347.37 3110.38 1314.76 3075.14 1387.82 2948.18 1044.09 3057.69 1003.64 3184.65 1347.37"/><polygon class="cls-16" points="2772.12 1347.37 2846.39 1314.76 2881.63 1387.82 3008.59 1044.09 2899.08 1003.64 2772.12 1347.37"/><path class="cls-5" d="M3005.15,730.72h0a41.77,41.77,0,0,1,66,17.68h0a41.77,41.77,0,0,0,46.35,26.76h0a41.78,41.78,0,0,1,48.3,48.29h0a41.79,41.79,0,0,0,26.76,46.35h0a41.77,41.77,0,0,1,17.68,66h0a41.77,41.77,0,0,0,0,53.52h0a41.77,41.77,0,0,1-17.68,66h0a41.78,41.78,0,0,0-26.76,46.34h0a41.78,41.78,0,0,1-48.3,48.3h0a41.78,41.78,0,0,0-46.35,26.75h0a41.76,41.76,0,0,1-66,17.67h0a41.77,41.77,0,0,0-53.52,0h0a41.77,41.77,0,0,1-66-17.67h0a41.77,41.77,0,0,0-46.35-26.75h0a41.77,41.77,0,0,1-48.29-48.3h0a41.76,41.76,0,0,0-26.76-46.34h0a41.77,41.77,0,0,1-17.68-66h0a41.77,41.77,0,0,0,0-53.52h0a41.77,41.77,0,0,1,17.68-66h0A41.78,41.78,0,0,0,2791,823.45h0a41.77,41.77,0,0,1,48.29-48.29h0a41.77,41.77,0,0,0,46.35-26.76h0a41.78,41.78,0,0,1,66-17.68h0A41.77,41.77,0,0,0,3005.15,730.72Z"/><path class="cls-18" d="M3000.21,774.46h0a34.07,34.07,0,0,1,53.8,14.42h0a34.06,34.06,0,0,0,37.8,21.82h0a34.06,34.06,0,0,1,39.38,39.38h0a34.06,34.06,0,0,0,21.82,37.8h0a34.07,34.07,0,0,1,14.42,53.8h0a34.06,34.06,0,0,0,0,43.65h0a34.06,34.06,0,0,1-14.42,53.79h0a34.08,34.08,0,0,0-21.82,37.8h0a34.07,34.07,0,0,1-39.38,39.39h0a34.05,34.05,0,0,0-37.8,21.82h0a34.06,34.06,0,0,1-53.8,14.41h0a34.08,34.08,0,0,0-43.65,0h0a34.06,34.06,0,0,1-53.8-14.41h0a34,34,0,0,0-37.79-21.82h0a34.07,34.07,0,0,1-39.39-39.39h0a34.07,34.07,0,0,0-21.82-37.8h0a34.05,34.05,0,0,1-14.41-53.79h0a34.08,34.08,0,0,0,0-43.65h0a34.06,34.06,0,0,1,14.41-53.8h0a34.05,34.05,0,0,0,21.82-37.8h0A34.07,34.07,0,0,1,2865,810.7h0a34.06,34.06,0,0,0,37.79-21.82h0a34.07,34.07,0,0,1,53.8-14.42h0A34.06,34.06,0,0,0,3000.21,774.46Z"/><rect class="cls-6" x="3010.87" y="2564.29" width="648.95" height="80.52" rx="19.72"/><rect class="cls-5" x="3059.65" y="2564.29" width="43.12" height="80.52"/><rect class="cls-5" x="3143.04" y="2564.29" width="43.12" height="80.52"/><rect class="cls-5" x="3226.44" y="2564.29" width="43.12" height="80.52"/><rect class="cls-5" x="3309.83" y="2564.29" width="43.12" height="80.52"/><rect class="cls-5" x="3393.23" y="2564.29" width="43.12" height="80.52"/><rect class="cls-5" x="3476.62" y="2564.29" width="43.12" height="80.52"/><rect class="cls-5" x="3560.02" y="2564.29" width="43.12" height="80.52"/><rect class="cls-19" x="3049.85" y="2483.77" width="648.95" height="80.52" rx="19.72"/><rect class="cls-5" x="3098.63" y="2483.77" width="43.12" height="80.52"/><rect class="cls-5" x="3182.02" y="2483.77" width="43.12" height="80.52"/><rect class="cls-5" x="3265.42" y="2483.77" width="43.12" height="80.52"/><rect class="cls-5" x="3348.81" y="2483.77" width="43.12" height="80.52"/><rect class="cls-5" x="3432.21" y="2483.77" width="43.12" height="80.52"/><rect class="cls-5" x="3515.6" y="2483.77" width="43.12" height="80.52"/><rect class="cls-5" x="3599" y="2483.77" width="43.12" height="80.52"/><rect class="cls-6" x="3006.91" y="2322.73" width="648.95" height="80.52" rx="19.72"/><rect class="cls-5" x="3055.69" y="2322.73" width="43.12" height="80.52"/><rect class="cls-5" x="3139.09" y="2322.73" width="43.12" height="80.52"/><rect class="cls-5" x="3222.48" y="2322.73" width="43.12" height="80.52"/><rect class="cls-5" x="3305.88" y="2322.73" width="43.12" height="80.52"/><rect class="cls-5" x="3389.27" y="2322.73" width="43.12" height="80.52"/><rect class="cls-5" x="3472.67" y="2322.73" width="43.12" height="80.52"/><rect class="cls-5" x="3556.06" y="2322.73" width="43.12" height="80.52"/><rect class="cls-20" x="2978.39" y="2403.25" width="648.95" height="80.52" rx="19.72"/><rect class="cls-5" x="3027.16" y="2403.25" width="43.12" height="80.52"/><rect class="cls-5" x="3110.56" y="2403.25" width="43.12" height="80.52"/><rect class="cls-5" x="3193.96" y="2403.25" width="43.12" height="80.52"/><rect class="cls-5" x="3277.35" y="2403.25" width="43.12" height="80.52"/><rect class="cls-5" x="3360.75" y="2403.25" width="43.12" height="80.52"/><rect class="cls-5" x="3444.14" y="2403.25" width="43.12" height="80.52"/><rect class="cls-5" x="3527.54" y="2403.25" width="43.12" height="80.52"/><path class="cls-21" d="M3727.46,2051.05s4.24-120.91-33.74-208.82-62.9-143.93-66.53-163.58c0,0-23,87.82-36.59,137.72-30,110.08-30.7,193.05,23.2,274.21,0,0,5.75,47.1,6.39,49.13s54.15,42.38,54.15,42.38l67.23-53.06Z"/><path class="cls-22" d="M3695.48,2194.7s-15.88-253.62-51.6-399c0,0,31.79,264.81,11.15,391.14Z"/><path class="cls-23" d="M3725.68,2180.8l.23,55,.23,61.05-20.7,3.41s-8.31-8.41-20.76-19.58c-19.21-17.17-48.25-40.83-71.76-50-38.73-15.14-99.36-73.92-145.57-179.32-1.64-3.71-3.31-7.25-5-10.62-47.51-93-133.37-69.15-133.37-69.15,69.85-22.76,129.26-21.86,179.18-7.5h0C3662.25,2008.38,3725.68,2180.8,3725.68,2180.8Z"/><path class="cls-3" d="M3725.91,2235.79l.23,61.05-20.7,3.41s-8.31-8.41-20.76-19.58C3544.85,2008,3456.62,1974.05,3453.85,1973,3587.51,2004.17,3690.91,2172,3725.91,2235.79Z"/><path class="cls-24" d="M3687.64,2187.62l15.9,63.08,17.68,70,24.72-2.18s7-12.09,18-28.54c17-25.32,43.28-61,67.52-78.41,39.92-28.74,92.12-113.92,114.07-248.28.79-4.73,1.66-9.28,2.67-13.65,27.08-120.54,132.49-118.46,132.49-118.46-86.73-5.53-154.55,13-207.53,44.1h0C3709.62,1971.41,3687.64,2187.62,3687.64,2187.62Z"/><path class="cls-22" d="M3703.54,2250.7l17.68,70,24.72-2.18s7-12.09,18-28.54c80.05-353.54,171.16-418.4,174-420.39C3794,1944.61,3724.89,2167.31,3703.54,2250.7Z"/><path class="cls-16" d="M3327.29,2528.36c43.47-66.48,192.8-267.5,386-226.37q10.81,2.27,21.81,5.61a22.28,22.28,0,0,0,8,1c4.08-.31,9.21-1.82,11.17-7.28a12.74,12.74,0,0,0-2.78-12.6,401.34,401.34,0,0,0-60.17-53.67c-59.17-43-152.68-85.08-249.8-26.21-130.08,78.84-133.1,251.16-129.35,315.46A8.26,8.26,0,0,0,3327.29,2528.36Z"/><path class="cls-22" d="M3364.69,2373.8c8.06-16.06,126-224.68,348.59-71.81q10.81,2.27,21.81,5.61a22.28,22.28,0,0,0,8,1c4.08-.31,9.21-1.82,11.17-7.28a12.74,12.74,0,0,0-2.78-12.6S3506.44,2091.17,3364.69,2373.8Z"/><path class="cls-25" d="M3364.27,2374.65c.14-.3.26-.57.42-.85C3364.46,2374.23,3364.34,2374.5,3364.27,2374.65Z"/><path class="cls-23" d="M4224.76,2380c-67.12-49.28-287.66-191.7-462.19-80.28q-9.78,6.21-19.35,13.53a23.24,23.24,0,0,1-7.46,3.93c-4.12,1.2-9.71,1.6-13.64-3a13.32,13.32,0,0,1-1.9-13.4,419.21,419.21,0,0,1,39.32-74.81c42.29-63.95,118.6-139.69,235.6-117.61,156.7,29.56,223,197.62,243,262.12A8.66,8.66,0,0,1,4224.76,2380Z"/><path class="cls-3" d="M4131.2,2242.05c-14.15-12.43-206.3-174.24-368.63,57.7q-9.78,6.21-19.35,13.53a23.24,23.24,0,0,1-7.46,3.93c-4.12,1.2-9.71,1.6-13.64-3a13.32,13.32,0,0,1-1.9-13.4,419.21,419.21,0,0,1,39.32-74.81C3828.34,2155.55,3958.31,2080.48,4131.2,2242.05Z"/><path class="cls-18" d="M3903.35,2324.16l-8.88,73.59-18.64,154.52-12,99.58H3599l-10.18-89.78-16.94-149.29L3561.85,2324l0-.05a26,26,0,0,1,25.83-28.92h289.89a26,26,0,0,1,25.8,29.1Z"/><path class="cls-26" d="M3903.35,2324.16l-8.88,73.59-18.64,154.52-12,99.58H3599l-10.18-89.78c238.66,147.06,307.46-208.1,314.13-246.38A26.27,26.27,0,0,1,3903.35,2324.16Z"/><path class="cls-10" d="M2218.17,1986.44l-28.62,30.11a48.86,48.86,0,0,1-69.71,1.21L689.6,628.74A48.92,48.92,0,0,1,757,557.85L2215.88,1916.77A48.91,48.91,0,0,1,2218.17,1986.44Z"/><path class="cls-2" d="M2392.88,2181.19a7.13,7.13,0,0,1-2.63,1.76,6.66,6.66,0,0,1-5.85-.49c-65.94-37.62-148.63-48.26-174.72-50.78a6.94,6.94,0,0,1-6.12-8.49c11.28-47.47-11.59-87.09-20.42-100.1a7,7,0,0,1,.71-8.72l31.87-33.52a7,7,0,0,1,8.67-1.15c13.44,8.16,54.16,29,101,15.34a7,7,0,0,1,8.79,5.69c3.84,25.93,18.63,108,59.54,171.93a6.65,6.65,0,0,1,.78,5.81A7,7,0,0,1,2392.88,2181.19Z"/><path class="cls-14" d="M2392.88,2181.19a7.13,7.13,0,0,1-2.63,1.76,6.66,6.66,0,0,1-5.85-.49c-65.94-37.62-148.63-48.26-174.72-50.78a6.94,6.94,0,0,1-6.12-8.49c11.28-47.47-11.59-87.09-20.42-100.1a7,7,0,0,1,.71-8.72l15.93-16.76Z"/><path class="cls-10" d="M2390.25,2183,2272.1,2070.63l4.26-4.48,118.14,112.32A7.18,7.18,0,0,1,2390.25,2183Z"/><circle class="cls-10" cx="2274.23" cy="2068.39" r="10.82"/><path class="cls-27" d="M2172.59,2028.15a49,49,0,0,1-52.75-10.39L689.6,628.74a48.93,48.93,0,0,1,21-82S1856.36,1825.25,2207.24,1989.77Z"/><path class="cls-28" d="M1206.86,1083.68c-1.23,13.88,12.69,65.29-13.86,78.67a17.77,17.77,0,0,0-4.75,3.55c-19.85,20.44-6.65,92.47-6.65,92.47l59-1.57L1221.84,1413l-91.12,9.69-6.94.74s-93.23-51.53-65.39-113.16c10.26-22.69,22.28-56.76,34.85-91.2.21-.6.41-1.15.59-1.64.13-.33.25-.67.36-1s.34-.91.5-1.36c0,0,0-.1,0-.14a1.8,1.8,0,0,0,.08-.21.64.64,0,0,1,0-.07.08.08,0,0,0,0,0c17.7-48.29,36.39-96.34,52.79-113.74a84.55,84.55,0,0,0,14.47-21.56c7.8-16.3,26-38.76,65.2-29.37,12.81,3.06,19.2,5.73,21.32,8.17C1256.38,1067,1207.83,1072.8,1206.86,1083.68Z"/><path class="cls-29" d="M1143.27,1409.09s-5.48,6-12.55,13.64l-6.94.74s-93.23-51.53-65.39-113.16c10.26-22.69,22.28-56.76,34.85-91.2-7.86,22-40.54,118.86-17.83,145.35C1101.08,1394.42,1143.27,1409.09,1143.27,1409.09Z"/><path class="cls-29" d="M1206.86,1083.68c-1.23,13.88,12.69,65.29-13.86,78.67a17.77,17.77,0,0,0-4.75,3.55l.08-1.16.53-.55c2.66-2.85,14.18-16.79,12.72-42.56-1.66-29.09-8.75-46.12,9.7-50.62,16.58-4,33.38-8.28,37.36-12.87C1256.38,1067,1207.83,1072.8,1206.86,1083.68Z"/><path class="cls-10" d="M1446,2640.29h410.58c-.16,0-.3-.11-.44-.31a372.39,372.39,0,0,0-26.27-34.26c-32.49-37.49-72.49-67-120.72-80.62l-47.84-13.5-194.14-43.29-16.91,137.41Z"/><path class="cls-21" d="M1673.43,2641.52h183.14c-.16,0-.3-.11-.44-.31a372.39,372.39,0,0,0-26.27-34.26c-32.49-37.49-72.49-67-120.72-80.62C1709.14,2526.33,1629.45,2553.88,1673.43,2641.52Z"/><path class="cls-13" d="M1446,2641.52h410.58c-.16,0-.3-.11-.44-.31a372.39,372.39,0,0,0-26.27-34.26H1450.25Z"/><polygon class="cls-10" points="604.66 2295.78 628.72 2425.86 617.96 2512.72 624.04 2530.23 653.12 2613.93 665.33 2649.09 488.75 2650.91 359.48 2414.18 604.66 2295.78"/><path class="cls-21" d="M488.75,2652.14H731.66a121.46,121.46,0,1,0-242.91,0Z"/><path class="cls-13" d="M359.48,2414.18l129.27,238H731.66a121.49,121.49,0,0,0-5.73-37H535.75a38.16,38.16,0,0,1-33.19-19.33h0l-105.7-199.7Z"/><path class="cls-18" d="M1642.69,2498.34l-157.63,32.41h0l-49.34,10.14L1357,2189.13a42.88,42.88,0,0,0-30.58-28l-153.29-36.86a330.23,330.23,0,0,1-114.92-52.41l-95.49,254.54a53.12,53.12,0,0,1-28.69,27.46l-308.32,154-16.5-75.27-31.66-144.38,226.74-140.64c13.14-7.12,22.67-62.48,26.24-77l58.63-244.07,13.17-51a216.65,216.65,0,0,1,10.2-32.73,204.89,204.89,0,0,1,28.92-50.36c9-11.47,17.8-25.45,28.14-33.58.21-.38.44-.77.66-1.15l.43.32a32.64,32.64,0,0,1,7.83-4.39l256.67,121.77-36,51.84,85.47,63.29,205,112.49a68.78,68.78,0,0,1,33.42,42.74Z"/><path class="cls-26" d="M1485.06,2530.75h0l-49.34,10.14L1357,2189.13a42.88,42.88,0,0,0-30.58-28l-153.29-36.86a330.23,330.23,0,0,1-114.92-52.41l-95.49,254.54a53.12,53.12,0,0,1-28.69,27.46l-308.32,154-16.5-75.27s241.74-91.38,291.54-158c40.77-54.55,86-146.72,82.79-277a494.79,494.79,0,0,0-4.16-51.9s22.48,58.67,88.68,100.9c54.46,34.74,139.36,56.72,241.27,71.64a105.2,105.2,0,0,1,77.55,54.56C1416.74,2228.72,1460.54,2338.68,1485.06,2530.75Z"/><path class="cls-30" d="M583.92,2258.07l-42.28,15.69a22.48,22.48,0,0,0-13.26,28.88L602.16,2502A22.47,22.47,0,0,0,629,2515.92l5.8-1.53a22.47,22.47,0,0,0,16.43-25.6l-37.3-213.51A22.48,22.48,0,0,0,583.92,2258.07Z"/><path class="cls-30" d="M1401.72,2510.65l10.76,46a14.79,14.79,0,0,0,17.85,11l236.77-56.79a14.8,14.8,0,0,0,11-17.66l-8.27-36.39a14.8,14.8,0,0,0-17.29-11.23l-239.26,47.15A14.78,14.78,0,0,0,1401.72,2510.65Z"/><path class="cls-29" d="M1790.23,1624.18l.15.91S1789,1623.82,1790.23,1624.18Z"/><path class="cls-28" d="M1897.46,1625.3,1840.14,1679c-50,38.06-189.26,61.84-246.43,70.26a54.9,54.9,0,0,1-43.74-12.69l-72-61.95,112.59-80,7.22,6.57h0L1634.9,1635l155.48-9.93c.52,0,1-.08,1.56-.14a26.23,26.23,0,0,0,17.47-9.93l29-37.21a10.13,10.13,0,0,0-1.09-13.65l-5.93-5.53h0l11.37,1.13a34.41,34.41,0,0,1,20.88,9.9l34.11,34.12A15,15,0,0,1,1897.46,1625.3Z"/><path class="cls-29" d="M1848.84,1575.67c-.64,10.07-22.38,23-32.91,38.14a26.4,26.4,0,0,1-18.22,11.37c-2.5.31-4.66.33-5.77-.23a26.23,26.23,0,0,0,17.47-9.93l29-37.21a10.13,10.13,0,0,0-1.09-13.65l-5.93-5.53h0C1832.5,1559,1849.57,1564.21,1848.84,1575.67Z"/><path class="cls-29" d="M1569.1,1747.26a54.61,54.61,0,0,1-19.13-10.68l-72-61.95,112.59-80,7.22,6.57h0C1597.77,1602.45,1599.47,1696.05,1569.1,1747.26Z"/><path class="cls-29" d="M1579.49,1270.21c1.66,10.34,5.62,32,6.62,37.44a1.21,1.21,0,0,1-1,1.42l-18.79,2.4a1.22,1.22,0,0,1-1.32-1.56l12.17-39.86A1.21,1.21,0,0,1,1579.49,1270.21Z"/><path class="cls-28" d="M1584.17,1182.66s5.23,234.88-91,163.8l-33.42,51.86L1371,1412.18l-13.19-144.06,103.6-103.38Z"/><path class="cls-29" d="M1493.17,1346.46s-19.48-19.21-22.14-30.17c0,0-8.71,24,13.14,44.13Z"/><circle class="cls-31" cx="1515.09" cy="1274.16" r="21.28"/><circle class="cls-32" cx="1564.91" cy="1257.26" r="8.85"/><path class="cls-32" d="M1555.93,1323l-22.86-16a2.82,2.82,0,0,0-4.41,2c-.57,5.74.11,15.62,9.66,22.07a3,3,0,0,0,.64.33,16.21,16.21,0,0,0,17.43-4.24A2.79,2.79,0,0,0,1555.93,1323Z"/><path class="cls-32" d="M1577.27,1241.43a20.2,20.2,0,0,0-12.31-5.94,15.77,15.77,0,0,0-12.42,4.48c-2.23,2.25,1.25,5.73,3.49,3.48a10.93,10.93,0,0,1,8.93-3,15,15,0,0,1,8.83,4.49c2.26,2.23,5.74-1.25,3.48-3.48Z"/><path class="cls-21" d="M1604.67,1562.58c-10.66,123.89-116.91,163.52-116.91,163.52l-69.28-70.49-133.77,235a1119.2,1119.2,0,0,1-110-47.82c-8.77-4.37-17.76-9-26.84-13.88-79.32-42.57-165.88-103.53-177.62-171.13L1117,1454.93l72-99.57,26.72-36.92L1468.16,1385Z"/><path class="cls-33" d="M1364.2,1495.82c24.25,42.65,10,76.43-3.68,95.51a50.11,50.11,0,0,1-35.35,20.55c-134.16,14.28-208.13-157-208.13-157l72-99.57,45.76,5.06L1468.16,1385C1457.57,1477,1325.82,1428.36,1364.2,1495.82Z"/><path class="cls-33" d="M1418.48,1655.61l-133.77,235a1119.2,1119.2,0,0,1-110-47.82c121.52,40.36,223.41-223.36,223.41-223.36Z"/><path d="M1598.39,1200.05c-3.28,22.49-16.48,39.21-16.48,39.21,3.67-34.33-12.46-52-12.46-52-32.23,67-84.24,52-107.55,40.78-11.22-5.4,12.87,54.06,2.1,60.28-27.47,15.87-39.45-7.42-25.29,73.46,17,97.06-61.29,65.56-90,93.57s42.56,105.92-21.91,135.37S1124.37,1475.08,1113,1412.3c-3.52-19.38.86-42.39,10.09-65,20.66-50.68,65.67-99.47,100.91-101.37,51-2.76,82,.23,121.56-77.17a133.72,133.72,0,0,1,18.64-28h0c37.13-41.93,80-22.2,80-22.2,49.62-36.45,118.93,12.53,118.93,12.53a105.22,105.22,0,0,1,16,13.1h0C1597.72,1163,1600.86,1183.14,1598.39,1200.05Z"/><path class="cls-34" d="M1581.91,1239.26c3.67-34.33-12.46-52-12.46-52-32.23,67-84.24,52-107.55,40.78-11.22-5.4,12.87,54.06,2.1,60.28-27.47,15.87-39.45-7.42-25.29,73.46,17,97.06-61.29,65.56-90,93.57s42.56,105.92-21.91,135.37S1124.37,1475.08,1113,1412.3c-3.52-19.38.86-42.39,10.09-65a190.45,190.45,0,0,0,24.62,74.46c7.83,13.42,18.21,26.53,32.91,31.56,7.81,2.68,16.45,2.9,23.82,6.64,17.35,8.81,20.17,31.86,29.42,49a64,64,0,0,0,40.78,31.39c10.1,2.43,22.53,1.45,28.38-7.14,2.92-4.27,3.61-9.65,4.09-14.81a296.68,296.68,0,0,0,1.09-37.23c-.61-18.5-1.18-40.82,14.32-50.94,9.36-6.11,21.41-5.23,32.58-6,13-.87,26.66-4.73,35.46-14.42,11.44-12.59,11.93-31.43,10.85-48.41s-2.87-35.14,5.51-49.94c8.82-15.59,27.54-24.58,33.53-41.47,5.16-14.56-.64-31.22,4.2-45.9.84-2.55,2.1-5.11,4.31-6.64,5.26-3.65,12.21.24,17.94,3.1,15.83,7.89,35,7.43,51.56,1.12s30.57-18,42-31.54c3-3.57,6.26-7.54,10.85-8.42,8.42-1.63,14.46,7.48,19.11,14.69,1.78,2.75,4.79,3.43,8,3.66C1595.11,1222.54,1581.91,1239.26,1581.91,1239.26Z"/><path class="cls-34" d="M1169.64,1388.06a140.2,140.2,0,0,1,8.65-22.06,174.37,174.37,0,0,1,11.89-20.6,166.66,166.66,0,0,1,14.76-18.77,148.92,148.92,0,0,1,17.5-16.36,140.76,140.76,0,0,1,20-13.37,146,146,0,0,1,22-9.78l5.66-1.93,5.52-1.84,5.43-2.06c.91-.33,1.8-.7,2.68-1.09l2.66-1.16a134.53,134.53,0,0,0,20.29-11.06,120.25,120.25,0,0,0,32.87-32,155.61,155.61,0,0,0,11.88-20c3.51-7,6.58-14.13,10.07-21.34.9-1.8,1.8-3.6,2.87-5.38.5-.89,1.11-1.77,1.7-2.64s1.2-1.65,1.83-2.44a109,109,0,0,1,8-9,149.3,149.3,0,0,1,18-15.68,99.18,99.18,0,0,1,20.71-11.86,54.24,54.24,0,0,1,11.49-3.29,31.16,31.16,0,0,1,11.83.42,30.49,30.49,0,0,0-11.66.48,52.14,52.14,0,0,0-11,3.92,99.55,99.55,0,0,0-19.58,12.68,148,148,0,0,0-17,16c-2.6,2.88-5.09,5.86-7.37,8.95-.58.77-1.13,1.56-1.66,2.34s-1,1.53-1.42,2.37c-.92,1.63-1.73,3.38-2.54,5.13-1.6,3.53-3.1,7.18-4.66,10.81s-3.2,7.26-4.93,10.86a161.09,161.09,0,0,1-11.92,20.87A124.85,124.85,0,0,1,1310,1273a141.62,141.62,0,0,1-21.25,11.43l-2.77,1.18c-.92.4-1.85.78-2.79,1.12l-5.64,2.1-11.27,3.67a141.77,141.77,0,0,0-21.34,9,152.51,152.51,0,0,0-19.6,12.44,163.1,163.1,0,0,0-32.72,33.13,183.27,183.27,0,0,0-12.82,19.67q-2.88,5.13-5.44,10.45C1172.61,1380.77,1171,1384.36,1169.64,1388.06Z"/><path class="cls-34" d="M1462.42,1165.9a99.29,99.29,0,0,0-11.07,7.12q-5.32,3.87-10.26,8.22a133.19,133.19,0,0,0-17.83,19.18,121.07,121.07,0,0,0-13.52,22.3,115.25,115.25,0,0,0-8.37,24.61c-.43,2.13-.93,4.24-1.22,6.39l-1,6.49-.5,3.3-.61,3.27c-.38,2.19-.91,4.35-1.39,6.52s-1.1,4.31-1.69,6.46-1.26,4.27-2,6.37a125.5,125.5,0,0,1-5,12.42c-3.68,8.13-8.32,15.74-12.9,23.23s-9.07,15-12.2,23a82.92,82.92,0,0,0-5.65,25,121.86,121.86,0,0,0-.22,13c.12,4.54-.24,9.32-2.27,13.77a18.31,18.31,0,0,1-4.29,5.89,21.68,21.68,0,0,1-6.06,3.83,50.52,50.52,0,0,1-13.24,3.27c-8.84,1.16-17.58,1.53-26.06,3.25a62.44,62.44,0,0,0-12.3,3.73,44.89,44.89,0,0,0-10.91,6.59c-6.57,5.47-11.31,13-14.41,21a104.53,104.53,0,0,0-6,25.41c-.25,2.18-.5,4.36-.65,6.54s-.29,4.38-.41,6.57-.16,4.39-.25,6.59l0,6.59-.25-6.59c0-2.2-.1-4.4-.06-6.6s.06-4.41.19-6.61.24-4.4.42-6.6a106.46,106.46,0,0,1,5.2-26c2.95-8.38,7.7-16.37,14.55-22.36a46,46,0,0,1,11.44-7.24,65.21,65.21,0,0,1,12.82-4.14c4.37-1,8.78-1.6,13.17-2.12s8.76-.93,13.05-1.56a47.49,47.49,0,0,0,12.25-3.12,18.33,18.33,0,0,0,5-3.23,14.36,14.36,0,0,0,3.36-4.74,21.92,21.92,0,0,0,1.59-5.8,36.93,36.93,0,0,0,.27-6.24,124.74,124.74,0,0,1,.18-13.39,86.23,86.23,0,0,1,5.83-26.23c3.32-8.39,8-16,12.59-23.52a220.91,220.91,0,0,0,12.8-22.79,118.58,118.58,0,0,0,5-12c.76-2,1.37-4.11,2-6.18s1.19-4.17,1.71-6.28,1-4.22,1.42-6.36l.64-3.2.54-3.22,1.12-6.52c.34-2.2.89-4.36,1.37-6.54a119.28,119.28,0,0,1,23.39-47.42,133.7,133.7,0,0,1,18.69-18.77A114,114,0,0,1,1462.42,1165.9Z"/><path class="cls-34" d="M1215.32,1428.11a80.51,80.51,0,0,1,3.25-20.65,58.09,58.09,0,0,1,9.18-18.88,39.5,39.5,0,0,1,16.68-12.9,43.42,43.42,0,0,1,10.33-2.69l10.36-1.32a183.26,183.26,0,0,0,20.41-3.62,43.6,43.6,0,0,0,9.49-3.5,20.51,20.51,0,0,0,8.75-8.31c.36-.74.77-1.45,1.06-2.22a29.41,29.41,0,0,0,1.55-4.73,58.2,58.2,0,0,0,1.34-10.08c0-.83.14-1.77.23-2.69a17.92,17.92,0,0,1,.44-2.72,19.83,19.83,0,0,1,.69-2.65c.14-.44.26-.88.42-1.31l.5-1.27a46.05,46.05,0,0,1,5.3-9.39,75.34,75.34,0,0,1,6.84-8.14c2.42-2.57,4.94-5,7.52-7.4,5.15-4.75,10.45-9.28,15.57-14,2.56-2.33,5.06-4.71,7.4-7.21a52.48,52.48,0,0,0,6.3-8,25.93,25.93,0,0,0,2.22-4.44c.27-.76.5-1.55.7-2.33s.29-1.52.39-2.44a99.79,99.79,0,0,1,1.85-10.41,165.49,165.49,0,0,1,6-20.15,150.81,150.81,0,0,1,8.57-19.17c1.67-3.08,3.5-6.08,5.45-9a78.25,78.25,0,0,1,6.39-8.33c4.61-5.24,10.09-9.92,16.57-12.58a38.3,38.3,0,0,0-8.7,5.67,57.83,57.83,0,0,0-7.26,7.42,79.58,79.58,0,0,0-6.05,8.44c-1.83,2.94-3.54,6-5.09,9a151.43,151.43,0,0,0-8.09,19.13,164.09,164.09,0,0,0-5.55,20c-.69,3.39-1.26,6.79-1.61,10.2-.06.81-.25,1.81-.39,2.71s-.47,1.81-.77,2.68a29.48,29.48,0,0,1-2.4,4.92,54.89,54.89,0,0,1-6.54,8.47c-2.39,2.61-4.91,5.06-7.48,7.45-5.13,4.77-10.43,9.28-15.5,14a106.87,106.87,0,0,0-13.92,15.14,43,43,0,0,0-5,8.75l-.47,1.16c-.15.38-.25.79-.38,1.18a27.25,27.25,0,0,0-1,4.82c-.08.82-.17,1.61-.22,2.52a60,60,0,0,1-1.45,10.6,33.89,33.89,0,0,1-1.71,5.19c-.34.85-.79,1.66-1.21,2.48s-1,1.59-1.53,2.33a23.61,23.61,0,0,1-8.46,7,46.16,46.16,0,0,1-10.11,3.63,162.82,162.82,0,0,1-20.78,3.35l-10.38,1.12a42,42,0,0,0-9.9,2.37,38.09,38.09,0,0,0-16.22,12,57.52,57.52,0,0,0-9.58,18.22,84.56,84.56,0,0,0-2.61,10.07A78.08,78.08,0,0,0,1215.32,1428.11Z"/><path class="cls-34" d="M1579.15,1144.17c-92.06-54.65-132.25-17.56-132.25-17.56-32.73-18.64-81.53,13.35-82.71,14.13,37.13-41.93,80-22.2,80-22.2,49.62-36.45,118.93,12.53,118.93,12.53A105.22,105.22,0,0,1,1579.15,1144.17Z"/><path class="cls-28" d="M1466.17,1288.45s-34.46-40-16-57.94c14.49-14.12,30,5.58,30,5.58Z"/><path class="cls-35" d="M1479.55,1236.14a31.11,31.11,0,0,0-11-8.15,16,16,0,0,0-20.63,7.36c-3.51,6.62-2,14.64.42,21.36a92,92,0,0,0,10.83,20.47,117,117,0,0,0,8,10.59c1,1.17-1,2.54-2,1.37-8-9.32-15.2-20.42-19.23-32.06-2.46-7.12-3.88-15.55-.28-22.55,3.88-7.56,12.54-12,20.86-9.8a31,31,0,0,1,15,10c1,1.18-1,2.55-2,1.37Z"/><path class="cls-35" d="M1467.54,1241.7a4.45,4.45,0,0,0-7.28,3.78c.37,4.19,5.65,4.51,8.12,7.08a5.22,5.22,0,0,1,1.59,4.23c-.21,1.85-1.51,3.31-2,5.06a9.55,9.55,0,0,0,2.89,9.83c1.18,1-.37,2.87-1.55,1.86a12,12,0,0,1-4.11-8.51,11.77,11.77,0,0,1,.72-4.63c.59-1.57,2.26-3.37,1.5-5.13s-2.67-2.43-4.19-3.17a9.66,9.66,0,0,1-4.35-3.36,6.86,6.86,0,0,1,10.26-8.9c1.21,1-.34,2.83-1.56,1.86Z"/><path class="cls-36" d="M302.59,2659.66H4212c52.81,0,105.68.76,158.48,0,2.31,0,4.62,0,6.93,0,9.69,0,9.7-15,0-15H468c-52.81,0-105.68-.75-158.48,0-2.31,0-4.62,0-6.93,0-9.69,0-9.7,15,0,15Z"/></g></svg>