<svg width="16" height="16" viewBox="0 0 16 16" fill="none" xmlns="http://www.w3.org/2000/svg">
<path d="M8.75 4.25C8.75 5.90685 7.40685 7.25 5.75 7.25C4.09315 7.25 2.75 5.90685 2.75 4.25C2.75 2.59315 4.09315 1.25 5.75 1.25C7.40685 1.25 8.75 2.59315 8.75 4.25Z" fill="black"/>
<path d="M5.75 9.5C3.26472 9.5 1.25 11.5147 1.25 14V14.75H10.25V14C10.25 11.5147 8.23528 9.5 5.75 9.5Z" fill="black"/>
<path d="M8 2.26563C8.54971 1.64282 9.35398 1.25 10.25 1.25C11.9069 1.25 13.25 2.59315 13.25 4.25C13.25 5.90685 11.9069 7.25 10.25 7.25C9.35398 7.25 8.54971 6.85718 8 6.23437M10.25 14.75H1.25V14C1.25 11.5147 3.26472 9.5 5.75 9.5C8.23528 9.5 10.25 11.5147 10.25 14V14.75ZM10.25 14.75H14.75V14C14.75 11.5147 12.7353 9.5 10.25 9.5C9.43035 9.5 8.66189 9.71914 8 10.102M8.75 4.25C8.75 5.90685 7.40685 7.25 5.75 7.25C4.09315 7.25 2.75 5.90685 2.75 4.25C2.75 2.59315 4.09315 1.25 5.75 1.25C7.40685 1.25 8.75 2.59315 8.75 4.25Z" stroke="black" stroke-linecap="round" stroke-linejoin="round"/>
</svg>
